<svg xmlns="http://www.w3.org/2000/svg" viewBox="0 0 400 400" fill="none" shape-rendering="auto" width="512" height="512"><metadata xmlns:rdf="http://www.w3.org/1999/02/22-rdf-syntax-ns#" xmlns:xsi="http://www.w3.org/2001/XMLSchema-instance" xmlns:dc="http://purl.org/dc/elements/1.1/" xmlns:dcterms="http://purl.org/dc/terms/"><rdf:RDF><rdf:Description><dc:title>Adventurer Neutral</dc:title><dc:creator>Lisa Wischofsky</dc:creator><dc:source xsi:type="dcterms:URI">https://www.figma.com/community/file/1184595184137881796</dc:source><dcterms:license xsi:type="dcterms:URI">https://creativecommons.org/licenses/by/4.0/</dcterms:license><dc:rights>Remix of „Adventurer Neutral” (https://www.figma.com/community/file/1184595184137881796) by „Lisa Wischofsky”, licensed under „CC BY 4.0” (https://creativecommons.org/licenses/by/4.0/)</dc:rights></rdf:Description></rdf:RDF></metadata><mask id="viewboxMask"><rect width="400" height="400" rx="200" ry="200" x="0" y="0" fill="#fff" /></mask><g mask="url(#viewboxMask)"><rect fill="#9e5622" width="400" height="400" x="0" y="0" /><g transform="translate(-279 -322)"><path d="M589.31 432.68c12.94 7.4 23.4 19.43 28.46 33.5 5.72 14.35 5.72 30.61.54 45.12-1.04 2.9-2.88 5.22-6.28 4.77-15.08-.73-29.98.14-45.06.56-10.03 1.1-20.04 2.15-30 3.79-10.45 1.82-20.62 4.13-30.98 6.08-4.32-.12-5.27-4.23-7.16-7.33-12.06-22.95-8.72-52.48 8.27-72.08 9.79-11.52 23.84-19.77 38.83-22.06a65.12 65.12 0 0 1 43.38 7.65Z" fill="#000"/><path d="M558 429.86c14.45 0 28.8 6.03 39.38 15.78a60.1 60.1 0 0 1 18.5 35.34c1.21 10 .36 20.16-3.44 29.56l-3.28-.37c1.67-5.12 2.73-10.04 1.39-15.4-1.92-10.81-10.74-19.63-21.59-21.4-5.35-.62-10.64-.41-15.57 1.95a26.64 26.64 0 0 0-15.32 19.72c-1.1 5.72-.02 11.42 2.43 16.64a286.92 286.92 0 0 0-34 5.18c-6.73 1.22-13.35 3.24-20.15 4.12-7.35-12.03-10.84-27.07-8.3-41.03a59.67 59.67 0 0 1 18.97-34.92c11.08-9.99 26.04-15.66 40.98-15.17Z" fill="#fff"/><path d="M392.02 447.07a54.82 54.82 0 0 1 33.45 15.5c9.47 9.26 15.55 22.16 16.25 35.43.8 10.74-1.6 21.5-6.91 30.87-1.13 1.88-2.87 4.02-5 4.71-3.03.8-6.6-.16-9.61-.83a304.26 304.26 0 0 0-26.28-5.18c-12.88-.84-26.08-.9-38.96.07-4.8.32-9.78 1.33-14.56 1-2.32-1.1-3.7-4.21-4.57-6.48-3.37-8.83-4.98-18.73-3.32-28.12a54.87 54.87 0 0 1 59.5-46.97Z" fill="#000"/><path d="M401.48 454.74a49.3 49.3 0 0 1 29.58 25.18c4.64 9.38 6.55 20.52 4.31 30.82-1.3 6.2-3.31 12.86-7.13 18l-4.14-.7c4.13-4.48 6.9-9.84 6.82-16.07.38-10.5-7.04-19.98-17.18-22.44-10.75-2.93-22.53 3.32-26.5 13.64-2.56 5.93-1.93 12.1.32 17.99-7.6.3-15.02-.37-22.59.38-7.31.65-14.63 1.12-21.93 1.8-.66-1.14-1.33-2.25-1.9-3.45-7.24-17.69-2.92-38.73 10.39-52.36 12.64-13.18 32.51-18.39 49.95-12.79Z" fill="#fff"/></g><g transform="translate(-279 -322)"><path d="M530.99 353.9c17.06 1.95 34 7.42 48.62 16.5 6.84 4.33 13.98 9.93 18.27 16.9.9 1.17 1.25 3.53-.22 4.34-1.19 1.18-2.85.5-4.15-.1-16.36-8.83-35.52-13.28-53.92-15.02-13.52-.79-28.3-.86-41.16 3.86-2.92 1.03-5.5 2.98-8.47 3.85-1.37.25-2.43-1.11-2.88-2.26-1.81-4.7-2.23-10.24.18-14.8 2.6-5.35 7.91-8.65 13.31-10.66 9.68-3.6 20.27-3.32 30.42-2.61ZM414.04 408.09c8.18 2.36 14.6 10.77 13.54 19.42-1.87.56-3.6 1-5.58.73-14.22-1.45-29.3 1.52-42.82 5.85-14.05 4.67-28.5 11.6-39.42 21.77-1.34 1.3-4.25 2.95-5.5.75-1.73-2.36.02-4.07 1.38-5.97 12.84-16.22 29.69-30.97 48.9-39.03 8.9-3.65 20.04-6.5 29.5-3.53Z" fill="#000"/></g><g transform="translate(-279 -322)"><path d="M524.16 555.86c.61 6.97-.8 13.29-1.53 20.14a244.24 244.24 0 0 1-19.15 70.23c-3.65 7.33-6.72 15.74-13.94 20.34-3.86 2.79-9.11 1.94-13.2.16-4.48-2.23-8.94-4.98-12.4-8.63a171.31 171.31 0 0 1-29.95-42.13c-6.76-12.54-11.65-25.76-17.12-38.87-.92-2.1-1.13-4.11 1.07-5.43 4.38-.1 8.65 1.41 13.06 1.45 9.89.33 20 .52 29.81-.88 17.69-2.04 35.09-7.15 51.54-13.9 4.22-1.53 7.13-4.31 11.8-2.48Z" fill="#000"/><path d="M518.92 562c-2.1 16.35-4.16 32.05-8.89 47.96-9.07-.71-18.45 2.59-26.46 6.61-10.54 5.48-21.2 13.48-27.26 23.89-7.57-9.81-13.74-20.42-19.35-31.44-5.4-10.14-9.36-20.75-13.97-31.24 9.45.8 18.5 2.05 28 1 23.2-.72 46.68-7.68 67.93-16.78Z" fill="#8F2E45"/><path d="M508.19 616.1c-3.83 13.3-8.82 26.4-15.55 38.52-1.62 2.89-3.68 5.84-6.7 7.39-4.1 1.71-9.13-1.19-12.46-3.5-5.34-3.38-8.58-8.29-12.86-12.75 1.94-5.34 6.2-9.98 10.4-13.7 7.82-6.68 17.1-12.04 27-14.9 3.33-1.04 6.71-1.16 10.17-1.06Z" fill="#EA869E"/></g><g transform="translate(-279 -322)"><path fill-rule="evenodd" clip-rule="evenodd" d="M531.31 506.71c7.34 4.5 12.1 12.74 12.8 21.28.97 9.95-4.2 20.21-12.55 25.62-6.5 4.08-14.6 5.58-22.07 3.66-11.77-2.85-20.88-13.75-20.98-25.94-8.63-10.18-25.54-13.93-36.48-5.26-3.23 2.99-6.6 7.32-6.74 11.9-1.66 12.19-12 22.16-24.27 23.28-12.14 1.5-24.5-6.08-28.61-17.62-4.63-11.86-.12-25.8 10.5-32.77a27.95 27.95 0 0 1 25.69-2.42c7.77 3.11 13.23 9.62 16.01 17.4 5.32-6.87 13.8-10.32 22.4-10.1 8.25-.07 15.45 3.28 21.98 8.05 1.86-6.67 5.57-12.57 11.32-16.53a28.01 28.01 0 0 1 31-.55Zm-22.64 2.4a22.79 22.79 0 0 1 19.3 1.94 22.35 22.35 0 0 1 10.6 20.98c-.62 9.97-8.38 18.29-18.07 20.26-11.33 2.28-23.02-5.13-25.9-16.28a22.5 22.5 0 0 1 14.07-26.89Zm-70.58 15.78c-3.85-8.69-13.5-14.16-22.92-12.75A22.13 22.13 0 0 0 398.04 525a22.04 22.04 0 0 0 4.56 24.43 22.12 22.12 0 0 0 23.59 4.82c6.8-2.63 12.26-9 13.4-16.26.51-4.56.7-8.92-1.5-13.11Z" fill="#000"/></g></g></svg>