<svg width="48" height="48" viewBox="0 0 48 48" fill="none" xmlns="http://www.w3.org/2000/svg">
<rect width="48" height="48" rx="24" fill="#F5F5F5"/>
<path d="M20.7784 26.7244V26.5398C20.7831 25.6828 20.8636 25.0009 21.0199 24.4943C21.1809 23.9877 21.4081 23.5805 21.7017 23.2727C21.9953 22.9602 22.3527 22.6738 22.7741 22.4134C23.063 22.2334 23.321 22.0369 23.5483 21.8239C23.7803 21.6061 23.9626 21.3646 24.0952 21.0994C24.2277 20.8295 24.294 20.5289 24.294 20.1974C24.294 19.8234 24.2064 19.4991 24.0312 19.2244C23.8561 18.9498 23.6193 18.7367 23.321 18.5852C23.0275 18.4337 22.6984 18.358 22.3338 18.358C21.9976 18.358 21.678 18.4313 21.375 18.5781C21.0767 18.7202 20.8281 18.938 20.6293 19.2315C20.4351 19.5204 20.3262 19.8873 20.3026 20.3324H17.7741C17.7978 19.4328 18.0156 18.6799 18.4276 18.0739C18.8442 17.4678 19.3935 17.0133 20.0753 16.7102C20.7618 16.4072 21.5194 16.2557 22.348 16.2557C23.2524 16.2557 24.0478 16.4143 24.7344 16.7315C25.4257 17.0488 25.9631 17.5009 26.3466 18.0881C26.7348 18.6705 26.929 19.3617 26.929 20.1619C26.929 20.7017 26.8414 21.1847 26.6662 21.6108C26.4957 22.0369 26.2519 22.4157 25.9347 22.7472C25.6174 23.0786 25.241 23.3745 24.8054 23.6349C24.4219 23.8717 24.107 24.1179 23.8608 24.3736C23.6193 24.6293 23.4394 24.9299 23.321 25.2756C23.2074 25.6165 23.1482 26.0379 23.1435 26.5398V26.7244H20.7784ZM22.0142 31.1562C21.5881 31.1562 21.2211 31.0047 20.9134 30.7017C20.6056 30.3987 20.4517 30.0294 20.4517 29.5938C20.4517 29.1676 20.6056 28.803 20.9134 28.5C21.2211 28.197 21.5881 28.0455 22.0142 28.0455C22.4356 28.0455 22.8002 28.197 23.108 28.5C23.4205 28.803 23.5767 29.1676 23.5767 29.5938C23.5767 29.8826 23.5033 30.1454 23.3565 30.3821C23.2145 30.6188 23.0251 30.8082 22.7884 30.9503C22.5563 31.0876 22.2983 31.1562 22.0142 31.1562Z" fill="#CCCCCC"/>
</svg>
