<svg width="62" height="16" viewBox="0 0 62 16" fill="none" xmlns="http://www.w3.org/2000/svg">
<path d="M56.2416 13.4649C56.822 13.4649 57.3185 13.3056 57.731 12.987C58.1506 12.6684 58.3604 12.2632 58.3604 11.7714V10.9922L56.2836 11.1273C55.8011 11.1619 55.427 11.2866 55.1612 11.5013C54.8955 11.7091 54.7627 11.9792 54.7627 12.3117C54.7627 12.6649 54.8955 12.9454 55.1612 13.1532C55.434 13.361 55.7941 13.4649 56.2416 13.4649ZM54.92 16C53.8431 16 52.9341 15.6779 52.1929 15.0337C51.4517 14.3896 51.0811 13.5653 51.0811 12.561C51.0811 11.5082 51.4761 10.6874 52.2663 10.0987C53.0565 9.50993 54.1963 9.17054 55.6857 9.0805L58.3604 8.92465V8.2805C58.3604 7.83721 58.2135 7.49435 57.9198 7.25193C57.6261 7.00258 57.2311 6.8779 56.7346 6.8779C56.2451 6.8779 55.843 6.99219 55.5284 7.22076C55.2207 7.4424 55.0389 7.73331 54.9829 8.09348H51.637C51.6929 6.92292 52.1929 5.99132 53.1369 5.29868C54.0809 4.59911 55.3431 4.24933 56.9234 4.24933C58.4478 4.24933 59.675 4.60258 60.605 5.30907C61.535 6.00864 62 6.92985 62 8.07271V15.8337H58.3813V14.2234H58.3079C58.0072 14.7775 57.5457 15.2138 56.9234 15.5324C56.301 15.8441 55.6332 16 54.92 16Z" fill="#E61F4E"/>
<path d="M50.9342 4.51947L47.1477 15.8338H42.8578L39.0293 4.51947H43.0256L45.0185 12.748H45.0919L47.0428 4.51947H50.9342Z" fill="#E61F4E"/>
<path d="M30.8794 16C29.4599 16 28.3446 15.484 27.5334 14.4519C26.7293 13.413 26.3272 11.9792 26.3272 10.1506C26.3272 8.34285 26.7363 6.9264 27.5544 5.90129C28.3725 4.86926 29.4949 4.35324 30.9214 4.35324C31.7325 4.35324 32.4388 4.55064 33.0401 4.94545C33.6485 5.34025 34.082 5.8632 34.3407 6.51428H34.4142V0.841553H38.1272V15.8338H34.4351V13.8909H34.3617C34.124 14.5074 33.6904 15.013 33.0611 15.4078C32.4388 15.8026 31.7115 16 30.8794 16ZM33.8478 8.03116C33.4632 7.49783 32.9387 7.23116 32.2744 7.23116C31.6101 7.23116 31.0857 7.49437 30.7011 8.02077C30.3235 8.54718 30.1347 9.26753 30.1347 10.1818C30.1347 11.0961 30.3235 11.8164 30.7011 12.3429C31.0787 12.8623 31.6031 13.1221 32.2744 13.1221C32.9457 13.1221 33.4702 12.8623 33.8478 12.3429C34.2324 11.8234 34.4247 11.103 34.4247 10.1818C34.4247 9.27445 34.2324 8.55757 33.8478 8.03116Z" fill="#E61F4E"/>
<path d="M21.1456 15.8338V4.51948H24.8587V15.8338H21.1456ZM24.3553 3.08571C23.9916 3.43203 23.5406 3.60519 23.0022 3.60519C22.4638 3.60519 22.0092 3.43203 21.6386 3.08571C21.275 2.73939 21.0932 2.30996 21.0932 1.7974C21.0932 1.29177 21.275 0.865801 21.6386 0.519481C22.0092 0.17316 22.4638 0 23.0022 0C23.5406 0 23.9916 0.17316 24.3553 0.519481C24.7189 0.858874 24.9007 1.28485 24.9007 1.7974C24.9007 2.30996 24.7189 2.73939 24.3553 3.08571Z" fill="#E61F4E"/>
<path d="M12.6601 15.8338V4.51951H16.2788V6.65977H16.3522C16.7718 5.1221 17.6668 4.35327 19.0374 4.35327C19.408 4.35327 19.7226 4.40176 19.9814 4.49873V7.63639C19.6317 7.49786 19.2366 7.4286 18.7961 7.4286C18.0129 7.4286 17.4151 7.63985 17.0025 8.06236C16.5899 8.48487 16.3837 9.09093 16.3837 9.88054V15.8338H12.6601Z" fill="#E61F4E"/>
<path d="M8.01353 15.8338H4.17459V3.91688H0V0.841553H12.1881V3.91688H8.01353V15.8338Z" fill="#E61F4E"/>
</svg>
