<svg width="24" height="24" viewBox="0 0 24 24" fill="none" xmlns="http://www.w3.org/2000/svg">
<g clip-path="url(#clip0_0_5)">
<rect width="24" height="24" rx="5" fill="url(#paint0_linear_0_5)"/>
<path d="M10.7715 8.07324C10.7142 8.07324 10.6032 8.08757 10.4385 8.11621C10.2809 8.1377 10.0947 8.16634 9.87988 8.20215C9.66504 8.23796 9.43945 8.28092 9.20312 8.33105C8.9668 8.37402 8.74479 8.41341 8.53711 8.44922C8.32943 8.48503 8.15039 8.51725 8 8.5459C7.84245 8.56738 7.73861 8.57812 7.68848 8.57812C7.20866 8.57812 6.96875 8.32747 6.96875 7.82617C6.96875 7.6901 6.98307 7.55762 7.01172 7.42871C7.0332 7.29264 7.07617 7.1709 7.14062 7.06348C7.20508 6.94889 7.29102 6.85221 7.39844 6.77344C7.50586 6.69466 7.64193 6.64095 7.80664 6.6123C8.64453 6.4834 9.47884 6.34733 10.3096 6.2041C11.1403 6.06087 11.9782 5.91048 12.8232 5.75293C13.0094 5.71712 13.1777 5.6849 13.3281 5.65625C13.4785 5.62044 13.6468 5.57389 13.833 5.5166C14.0335 5.45931 14.252 5.4056 14.4883 5.35547C14.7246 5.29818 14.9609 5.24805 15.1973 5.20508C15.4408 5.16211 15.6735 5.1263 15.8955 5.09766C16.1247 5.06901 16.3324 5.05469 16.5186 5.05469C16.7477 5.05469 16.9196 5.12988 17.0342 5.28027C17.1559 5.4235 17.2168 5.6276 17.2168 5.89258C17.2168 6.02865 17.2061 6.16113 17.1846 6.29004C17.1631 6.41178 17.1237 6.52279 17.0664 6.62305C17.0091 6.72331 16.9303 6.80566 16.8301 6.87012C16.7298 6.93457 16.6009 6.97396 16.4434 6.98828C16.0352 7.04557 15.5983 7.11719 15.1328 7.20312C14.6673 7.2819 14.2627 7.37142 13.9189 7.47168C13.7757 7.51465 13.6683 7.58626 13.5967 7.68652C13.5251 7.77962 13.4785 7.89779 13.457 8.04102C13.4355 8.17708 13.4212 8.31673 13.4141 8.45996C13.4141 8.59603 13.4141 8.72852 13.4141 8.85742C13.4141 9.1582 13.4248 9.45898 13.4463 9.75977C13.4749 10.0605 13.5 10.3613 13.5215 10.6621C13.5859 11.6934 13.6826 12.7139 13.8115 13.7236C13.9476 14.7334 14.0944 15.7539 14.252 16.7852C14.2663 16.821 14.2734 16.8568 14.2734 16.8926C14.2734 16.9284 14.2734 16.9642 14.2734 17C14.2734 17.3939 14.0514 17.6732 13.6074 17.8379L13.124 17.9883C12.9951 18.0312 12.8698 18.0527 12.748 18.0527C12.5618 18.0527 12.4115 17.9919 12.2969 17.8701C12.1823 17.7555 12.1071 17.5837 12.0713 17.3545C11.8708 16.1227 11.6953 14.8981 11.5449 13.6807C11.3945 12.4561 11.2979 11.2243 11.2549 9.98535C11.2406 9.78483 11.2298 9.56641 11.2227 9.33008C11.2155 9.09375 11.2119 8.85026 11.2119 8.59961C11.2119 8.2487 11.0651 8.07324 10.7715 8.07324Z" fill="white"/>
</g>
<defs>
<linearGradient id="paint0_linear_0_5" x1="2.14237e-07" y1="2.46575" x2="25.1655" y2="4.03877" gradientUnits="userSpaceOnUse">
<stop stop-color="#F40C43"/>
<stop offset="0.50872" stop-color="#FD6E55"/>
<stop offset="1" stop-color="#FFAF60"/>
</linearGradient>
<clipPath id="clip0_0_5">
<rect width="24" height="24" rx="5" fill="white"/>
</clipPath>
</defs>
</svg>
