<svg width="24" height="27" viewBox="0 0 24 27" fill="none" xmlns="http://www.w3.org/2000/svg">
<path fill-rule="evenodd" clip-rule="evenodd" d="M8.31854 5.91248C8.43503 5.71279 8.64882 5.59 8.88 5.59H15.12C15.3512 5.59 15.565 5.71279 15.6815 5.91248L17.1733 8.47H19.2C20.8845 8.47 22.25 9.83553 22.25 11.52V21.36C22.25 23.0445 20.8845 24.41 19.2 24.41H4.8C3.11553 24.41 1.75 23.0445 1.75 21.36V11.52C1.75 9.83553 3.11553 8.47 4.8 8.47H6.82666L8.31854 5.91248ZM9.25334 6.89L7.76146 9.44752C7.64497 9.64721 7.43118 9.77 7.2 9.77H4.8C3.8335 9.77 3.05 10.5535 3.05 11.52V21.36C3.05 22.3265 3.8335 23.11 4.8 23.11H19.2C20.1665 23.11 20.95 22.3265 20.95 21.36V11.52C20.95 10.5535 20.1665 9.77 19.2 9.77H16.8C16.5688 9.77 16.355 9.64721 16.2385 9.44752L14.7467 6.89H9.25334ZM12 12.89C10.3708 12.89 9.05 14.2108 9.05 15.84C9.05 17.4692 10.3708 18.79 12 18.79C13.6292 18.79 14.95 17.4692 14.95 15.84C14.95 14.2108 13.6292 12.89 12 12.89ZM7.75 15.84C7.75 13.4928 9.65279 11.59 12 11.59C14.3472 11.59 16.25 13.4928 16.25 15.84C16.25 18.1872 14.3472 20.09 12 20.09C9.65279 20.09 7.75 18.1872 7.75 15.84Z" fill="black"/>
<path d="M18 3L22 3" stroke="#303234" stroke-width="1.3" stroke-linecap="round"/>
<path d="M20 1V5" stroke="#303234" stroke-width="1.3" stroke-linecap="round"/>
</svg>
