<svg width="24" height="24" viewBox="0 0 24 24" fill="none" xmlns="http://www.w3.org/2000/svg">
<path d="M2.40002 2.34274C2.04104 2.34274 1.75002 2.63375 1.75002 2.99274C1.75002 3.35172 2.04104 3.64274 2.40002 3.64274V2.34274ZM4.69256 2.99274L5.31996 2.82282C5.24322 2.53948 4.98611 2.34274 4.69256 2.34274V2.99274ZM8.41793 16.748L7.79054 16.9179C7.87521 17.2305 8.17715 17.4331 8.49856 17.3929L8.41793 16.748ZM19.8806 15.3151L19.9612 15.9601C20.2373 15.9256 20.4608 15.7192 20.5171 15.4468L19.8806 15.3151ZM21.6 7.00468L22.2365 7.13637C22.2761 6.94494 22.2275 6.74584 22.1041 6.59425C21.9806 6.44266 21.7955 6.35468 21.6 6.35468V7.00468ZM5.77913 7.00468L5.15173 7.1746L5.77913 7.00468ZM2.40002 3.64274H4.69256V2.34274H2.40002V3.64274ZM8.49856 17.3929L19.9612 15.9601L19.8 14.6701L8.33731 16.103L8.49856 17.3929ZM20.5171 15.4468L22.2365 7.13637L20.9635 6.87298L19.2441 15.1834L20.5171 15.4468ZM4.06516 3.16266L5.15173 7.1746L6.40653 6.83476L5.31996 2.82282L4.06516 3.16266ZM5.15173 7.1746L7.79054 16.9179L9.04533 16.578L6.40653 6.83476L5.15173 7.1746ZM21.6 6.35468H5.77913V7.65468H21.6V6.35468ZM11.35 20.5C11.35 20.9695 10.9695 21.35 10.5 21.35V22.65C11.6874 22.65 12.65 21.6874 12.65 20.5H11.35ZM10.5 21.35C10.0306 21.35 9.65002 20.9695 9.65002 20.5H8.35002C8.35002 21.6874 9.31261 22.65 10.5 22.65V21.35ZM9.65002 20.5C9.65002 20.0306 10.0306 19.65 10.5 19.65V18.35C9.31261 18.35 8.35002 19.3126 8.35002 20.5H9.65002ZM10.5 19.65C10.9695 19.65 11.35 20.0306 11.35 20.5H12.65C12.65 19.3126 11.6874 18.35 10.5 18.35V19.65ZM19.35 20.5C19.35 20.9695 18.9695 21.35 18.5 21.35V22.65C19.6874 22.65 20.65 21.6874 20.65 20.5H19.35ZM18.5 21.35C18.0306 21.35 17.65 20.9695 17.65 20.5H16.35C16.35 21.6874 17.3126 22.65 18.5 22.65V21.35ZM17.65 20.5C17.65 20.0306 18.0306 19.65 18.5 19.65V18.35C17.3126 18.35 16.35 19.3126 16.35 20.5H17.65ZM18.5 19.65C18.9695 19.65 19.35 20.0306 19.35 20.5H20.65C20.65 19.3126 19.6874 18.35 18.5 18.35V19.65Z" fill="#303234"/>
</svg>
