<svg width="12" height="12" viewBox="0 0 12 12" fill="none" xmlns="http://www.w3.org/2000/svg">
<path d="M11.0539 3.5717C10.9693 3.49794 10.8647 3.45098 10.7534 3.43679C10.642 3.42261 10.529 3.44182 10.4286 3.49201L8.07499 4.66388L6.10999 1.39998C6.05948 1.31622 5.98819 1.24694 5.90302 1.19885C5.81785 1.15076 5.72171 1.12549 5.6239 1.12549C5.52609 1.12549 5.42995 1.15076 5.34478 1.19885C5.25961 1.24694 5.18832 1.31622 5.13781 1.39998L3.17281 4.66529L0.82015 3.49342C0.719997 3.44368 0.607384 3.42463 0.496444 3.43865C0.385504 3.45268 0.281178 3.49916 0.196559 3.57227C0.111939 3.64537 0.0507959 3.74184 0.0208016 3.84956C-0.00919269 3.95729 -0.00670171 4.07148 0.0279619 4.17779L1.76234 9.49154C1.77977 9.54492 1.80898 9.59371 1.8478 9.63429C1.88661 9.67488 1.93405 9.70623 1.9866 9.72602C2.03916 9.74582 2.09549 9.75356 2.15143 9.74868C2.20738 9.74379 2.26151 9.7264 2.30984 9.69779C2.32156 9.69076 3.52015 9.00029 5.6239 9.00029C7.72765 9.00029 8.92624 9.69076 8.93702 9.69732C8.98537 9.72621 9.03959 9.74383 9.09568 9.74889C9.15177 9.75395 9.20827 9.74631 9.261 9.72654C9.31374 9.70677 9.36134 9.67538 9.40028 9.6347C9.43921 9.59402 9.46849 9.54509 9.48593 9.49154L11.2203 4.1792C11.256 4.07285 11.2592 3.9583 11.2296 3.85012C11.1999 3.74194 11.1388 3.64503 11.0539 3.5717ZM7.8664 7.35029C7.85109 7.43704 7.80574 7.51563 7.73828 7.57229C7.67083 7.62894 7.58558 7.66004 7.49749 7.66013C7.4755 7.6601 7.45355 7.65822 7.43187 7.65451C6.23407 7.44888 5.00998 7.44888 3.81218 7.65451C3.76367 7.66307 3.71396 7.66198 3.66587 7.65133C3.61778 7.64067 3.57226 7.62064 3.53191 7.59239C3.45042 7.53534 3.39493 7.44826 3.37765 7.35029C3.36037 7.25233 3.38271 7.15151 3.43976 7.07002C3.49682 6.98853 3.5839 6.93304 3.68187 6.91576C4.9659 6.69514 6.27815 6.69514 7.56218 6.91576C7.61086 6.92409 7.65742 6.94195 7.69917 6.96832C7.74093 6.99469 7.77707 7.02905 7.80551 7.06943C7.83395 7.10981 7.85413 7.1554 7.86491 7.2036C7.87568 7.2518 7.87682 7.30165 7.86827 7.35029H7.8664Z" fill="#42C52D"/>
</svg>
