<svg width="16" height="16" viewBox="0 0 16 16" fill="none" xmlns="http://www.w3.org/2000/svg">
<path fill-rule="evenodd" clip-rule="evenodd" d="M2.6 3.8001C2.37909 3.8001 2.2 3.97918 2.2 4.2001V9.88015C2.6103 9.17845 3.37659 8.70919 4.24828 8.70919C5.3409 8.70919 6.26793 9.44648 6.53585 10.4546H9.38621V3.8001H2.6ZM10.5862 4.78192V3.2001C10.5862 2.86873 10.3176 2.6001 9.98621 2.6001H2.6C1.71635 2.6001 1 3.31644 1 4.2001V11.0546C1 11.386 1.26863 11.6546 1.6 11.6546H1.9607C2.22862 12.6628 3.15565 13.4001 4.24828 13.4001C5.3409 13.4001 6.26793 12.6628 6.53585 11.6546H9.90553C10.1734 12.6628 11.1005 13.4001 12.1931 13.4001C13.2877 13.4001 14.2162 12.6601 14.4822 11.6491C14.7747 11.609 15 11.3581 15 11.0546V7.56373C15 7.40342 14.9358 7.24976 14.8218 7.13705L12.6149 4.95523C12.5026 4.84419 12.351 4.78192 12.1931 4.78192H10.5862ZM10.5862 5.98192V9.33344C11.0091 8.94548 11.5746 8.70919 12.1931 8.70919C12.8117 8.70919 13.3771 8.94548 13.8 9.33344V7.81427L11.9466 5.98192H10.5862ZM4.24828 9.90919C3.5981 9.90919 3.08276 10.4285 3.08276 11.0546C3.08276 11.6808 3.5981 12.2001 4.24828 12.2001C4.89846 12.2001 5.41379 11.6808 5.41379 11.0546C5.41379 10.4285 4.89846 9.90919 4.24828 9.90919ZM12.1931 9.90919C11.5429 9.90919 11.0276 10.4285 11.0276 11.0546C11.0276 11.6808 11.5429 12.2001 12.1931 12.2001C12.8433 12.2001 13.3586 11.6808 13.3586 11.0546C13.3586 10.4285 12.8433 9.90919 12.1931 9.90919Z" fill="#303234"/>
</svg>
