<svg width="16" height="16" viewBox="0 0 16 16" fill="none" xmlns="http://www.w3.org/2000/svg">
<path fill-rule="evenodd" clip-rule="evenodd" d="M7.21496 1.58809C7.53608 0.937434 8.46389 0.937434 8.78501 1.58809L10.5387 5.14144L14.46 5.71125C15.1781 5.81558 15.4648 6.69798 14.9452 7.20445L12.1077 9.97035L12.7775 13.8759C12.9002 14.591 12.1496 15.1363 11.5074 14.7987L7.99998 12.9548L4.49262 14.7987C3.85038 15.1363 3.09977 14.591 3.22242 13.8759L3.89227 9.97034L1.05475 7.20445C0.535175 6.69798 0.821884 5.81558 1.53992 5.71125L5.46128 5.14144L7.21496 1.58809Z" fill="#303234" fill-opacity="0.08"/>
<path fill-rule="evenodd" clip-rule="evenodd" d="M7.21496 1.58809C7.53608 0.937434 8.46389 0.937434 8.78501 1.58809L10.5387 5.14144L14.46 5.71125C15.1781 5.81558 15.4648 6.69798 14.9452 7.20445L12.1077 9.97035L12.7775 13.8759C12.9002 14.591 12.1496 15.1363 11.5074 14.7987L7.99998 12.9548L4.49262 14.7987C3.85038 15.1363 3.09977 14.591 3.22242 13.8759L3.89227 9.97034L1.05475 7.20445C0.535175 6.69798 0.821884 5.81558 1.53992 5.71125L5.46128 5.14144L7.21496 1.58809Z" fill="url(#paint0_linear_421_8715)"/>
<defs>
<linearGradient id="paint0_linear_421_8715" x1="1.09878" y1="8" x2="15" y2="8" gradientUnits="userSpaceOnUse">
<stop offset="0.5001" stop-color="#FFD749"/>
<stop offset="0.500527" stop-color="#FFD749" stop-opacity="0"/>
</linearGradient>
</defs>
</svg>
