<svg width="16" height="16" viewBox="0 0 16 16" fill="none" xmlns="http://www.w3.org/2000/svg">
<path fill-rule="evenodd" clip-rule="evenodd" d="M9.94551 2.34961L9.94721 2.34961C10.9712 2.34961 11.9466 2.77025 12.6599 3.51097L12.6609 3.51201C13.3686 4.25022 13.7629 5.23383 13.7611 6.25647C13.763 7.27887 13.369 8.26231 12.6616 9.00053L12.6601 9.00203C12.2222 9.45608 11.783 9.92255 11.3403 10.3926C10.4355 11.3535 9.51637 12.3296 8.56534 13.2457L8.56128 13.2496C7.98022 13.7996 7.06048 13.7806 6.50393 13.204L2.45097 9.00265C0.983591 7.48137 0.982944 5.03344 2.4496 3.51198C2.79955 3.14507 3.22027 2.85294 3.68634 2.65324C4.15305 2.45328 4.65551 2.35017 5.16325 2.35017C5.67099 2.35017 6.17345 2.45328 6.64016 2.65324C6.97129 2.79512 7.27953 2.98366 7.55576 3.21253C7.83202 2.98432 8.14001 2.79621 8.47072 2.65443C8.9368 2.45461 9.43841 2.35094 9.94551 2.34961ZM13.7611 6.25647C13.7611 6.25687 13.7611 6.25727 13.7611 6.25767L13.1111 6.25633L13.7611 6.25487C13.7611 6.2554 13.7611 6.25594 13.7611 6.25647ZM11.7229 4.41212C11.2509 3.9223 10.6124 3.64984 9.94806 3.64961C9.61621 3.65059 9.28797 3.71849 8.98296 3.84925C8.6777 3.98012 8.40199 4.17127 8.17236 4.41124L8.16997 4.41374L8.02274 4.56595C7.90042 4.69242 7.73206 4.76391 7.55612 4.76407C7.38018 4.76424 7.21168 4.69307 7.08913 4.56683L6.9371 4.41023C6.70828 4.17005 6.43309 3.97883 6.12817 3.84818C5.82325 3.71753 5.49498 3.65017 5.16325 3.65017C4.83152 3.65017 4.50325 3.71753 4.19833 3.84818C3.89341 3.97883 3.6182 4.17003 3.38938 4.41021L3.38651 4.41321C2.40457 5.43077 2.40442 7.08181 3.38657 8.10008C3.38656 8.10007 3.38658 8.10009 3.38657 8.10008L7.43929 12.3011C7.49902 12.363 7.60168 12.3665 7.66628 12.3067C8.59423 11.4127 9.47351 10.4787 10.364 9.53288C10.8118 9.0572 11.2625 8.57851 11.7236 8.10037C11.7239 8.10011 11.7241 8.09984 11.7244 8.09958L12.1922 8.55081L11.7236 8.10037C11.7234 8.10061 11.7238 8.10014 11.7236 8.10037C12.1984 7.60459 12.4627 6.94423 12.4611 6.25778V6.25499C12.4626 5.56835 12.198 4.90787 11.7229 4.41212Z" fill="#ffffff"/>
</svg>
