<svg width="16" height="16" viewBox="0 0 16 16" fill="none" xmlns="http://www.w3.org/2000/svg">
<path fill-rule="evenodd" clip-rule="evenodd" d="M8.00001 2.2502C4.82437 2.2502 2.25001 4.82456 2.25001 8.0002C2.25001 11.1758 4.82437 13.7502 8.00001 13.7502C11.1756 13.7502 13.75 11.1758 13.75 8.0002C13.75 4.82456 11.1756 2.2502 8.00001 2.2502ZM0.950012 8.0002C0.950012 4.10659 4.1064 0.950195 8.00001 0.950195C11.8936 0.950195 15.05 4.10659 15.05 8.0002C15.05 11.8938 11.8936 15.0502 8.00001 15.0502C4.1064 15.0502 0.950012 11.8938 0.950012 8.0002ZM8.00001 5.0502C7.48675 5.0502 7.05001 5.47753 7.05001 6.03041C7.05001 6.3894 6.759 6.68041 6.40001 6.68041C6.04103 6.68041 5.75001 6.3894 5.75001 6.03041C5.75001 4.7826 6.74596 3.7502 8.00001 3.7502C9.25406 3.7502 10.25 4.7826 10.25 6.03041C10.25 7.053 9.58114 7.93093 8.64949 8.21454C8.64939 8.37198 8.64932 8.55379 8.64932 8.74745C8.64932 9.10643 8.3583 9.39744 7.99932 9.39744C7.64033 9.39744 7.34932 9.10643 7.34932 8.74745C7.34932 8.44709 7.34949 8.17519 7.34966 7.97838L7.35001 7.66007C7.35052 7.30145 7.64139 7.01063 8.00001 7.01063C8.51327 7.01063 8.95001 6.58329 8.95001 6.03041C8.95001 5.47753 8.51327 5.0502 8.00001 5.0502ZM7.99932 10.5502C8.3583 10.5502 8.64932 10.8412 8.64932 11.2002V11.2283C8.64932 11.5873 8.3583 11.8783 7.99932 11.8783C7.64033 11.8783 7.34932 11.5873 7.34932 11.2283V11.2002C7.34932 10.8412 7.64033 10.5502 7.99932 10.5502Z" fill="#32B11E"/>
</svg>
