<svg width="16" height="16" viewBox="0 0 16 16" fill="none" xmlns="http://www.w3.org/2000/svg">
<path d="M4.43407 14.3996H11.5655C11.9695 14.3996 12.2969 14.0721 12.2969 13.6682V11.7143C12.2969 11.5581 12.247 11.4061 12.1543 11.2804L10.0451 8.4178C9.86054 8.16737 9.85459 7.82762 10.0303 7.57089L11.9863 4.71207C12.0695 4.59042 12.1141 4.44645 12.1141 4.29905V2.33104C12.1141 1.92708 11.7866 1.59961 11.3826 1.59961H4.43407C4.03011 1.59961 3.70264 1.92708 3.70264 2.33104V4.28495C3.70264 4.44109 3.7526 4.59313 3.84522 4.71883L5.94293 7.56573C6.13305 7.82374 6.13305 8.17548 5.94293 8.43349L3.84522 11.2804C3.7526 11.4061 3.70264 11.5581 3.70264 11.7143V13.6682C3.70264 14.0721 4.03011 14.3996 4.43407 14.3996Z" stroke="#303234" stroke-linecap="round" stroke-linejoin="round"/>
</svg>
