<svg width="16" height="16" viewBox="0 0 16 16" fill="none" xmlns="http://www.w3.org/2000/svg">
<path fill-rule="evenodd" clip-rule="evenodd" d="M8 2.2502C5.59276 2.2502 3.64131 4.20165 3.64131 6.60889C3.64131 7.2923 3.90164 8.08701 4.34838 8.93085C4.79069 9.76633 5.38832 10.5991 5.99873 11.3451C6.60742 12.0891 7.21791 12.7336 7.67702 13.1927C7.79601 13.3117 7.90458 13.418 8 13.5101C8.09543 13.418 8.204 13.3117 8.32299 13.1927C8.7821 12.7336 9.39259 12.0891 10.0013 11.3451C10.6117 10.5991 11.2093 9.76633 11.6516 8.93085C12.0984 8.08701 12.3587 7.2923 12.3587 6.60889C12.3587 4.20165 10.4072 2.2502 8 2.2502ZM8 14.4002C7.56817 14.886 7.56806 14.8859 7.56793 14.8858L7.56311 14.8815L7.55091 14.8705L7.50599 14.8299C7.46723 14.7945 7.41124 14.7431 7.34048 14.6768C7.19899 14.5443 6.99818 14.3524 6.75778 14.112C6.27775 13.632 5.63607 12.9548 4.99258 12.1683C4.35082 11.3839 3.69627 10.4775 3.19946 9.5391C2.70706 8.60903 2.34131 7.59505 2.34131 6.60889C2.34131 3.48368 4.87479 0.950195 8 0.950195C11.1252 0.950195 13.6587 3.48368 13.6587 6.60889C13.6587 7.59505 13.2929 8.60903 12.8006 9.5391C12.3037 10.4775 11.6492 11.3839 11.0074 12.1683C10.3639 12.9548 9.72226 13.632 9.24223 14.112C9.00183 14.3524 8.80102 14.5443 8.65953 14.6768C8.58877 14.7431 8.53278 14.7945 8.49402 14.8299L8.4491 14.8705L8.4369 14.8815L8.43346 14.8846L8.43242 14.8855C8.4323 14.8856 8.43184 14.886 8 14.4002ZM8 14.4002L8.43242 14.8855L8 15.2699L7.56793 14.8858L8 14.4002ZM8.00021 5.4503C7.47554 5.4503 7.05021 5.87563 7.05021 6.4003C7.05021 6.92497 7.47554 7.3503 8.00021 7.3503C8.52488 7.3503 8.95021 6.92497 8.95021 6.4003C8.95021 5.87563 8.52488 5.4503 8.00021 5.4503ZM5.75021 6.4003C5.75021 5.15766 6.75757 4.1503 8.00021 4.1503C9.24285 4.1503 10.2502 5.15766 10.2502 6.4003C10.2502 7.64294 9.24285 8.6503 8.00021 8.6503C6.75757 8.6503 5.75021 7.64294 5.75021 6.4003Z" fill="#303234"/>
</svg>
