<svg width="24" height="24" viewBox="0 0 24 24" fill="none" xmlns="http://www.w3.org/2000/svg">
<path fill-rule="evenodd" clip-rule="evenodd" d="M1.75 4.7999C1.75 4.44092 2.04101 4.1499 2.4 4.1499H9.00001C9.35899 4.1499 9.65001 4.44092 9.65001 4.7999C9.65001 5.15889 9.35899 5.4499 9.00001 5.4499H2.4C2.04101 5.4499 1.75 5.15889 1.75 4.7999ZM1.75 11.9999C1.75 11.6409 2.04101 11.3499 2.4 11.3499H9.00001C9.35899 11.3499 9.65001 11.6409 9.65001 11.9999C9.65001 12.3589 9.35899 12.6499 9.00001 12.6499H2.4C2.04101 12.6499 1.75 12.3589 1.75 11.9999ZM1.75 19.1999C1.75 18.8409 2.04101 18.5499 2.4 18.5499H19C19.359 18.5499 19.65 18.8409 19.65 19.1999C19.65 19.5589 19.359 19.8499 19 19.8499H2.4C2.04101 19.8499 1.75 19.5589 1.75 19.1999Z" fill="white"/>
<path fill-rule="evenodd" clip-rule="evenodd" d="M16.6663 4.6501C14.4479 4.6501 12.6496 6.44842 12.6496 8.66676C12.6496 10.8851 14.4479 12.6834 16.6663 12.6834C17.76 12.6834 18.7515 12.2463 19.4759 11.5373C19.477 11.5362 19.4781 11.5351 19.4792 11.534C20.2221 10.8051 20.6829 9.78975 20.6829 8.66676C20.6829 6.44842 18.8846 4.6501 16.6663 4.6501ZM20.834 11.9681C21.5534 11.0612 21.9829 9.91418 21.9829 8.66676C21.9829 5.73045 19.6026 3.3501 16.6663 3.3501C13.73 3.3501 11.3496 5.73045 11.3496 8.66676C11.3496 11.6031 13.73 13.9834 16.6663 13.9834C17.8865 13.9834 19.0108 13.5723 19.9081 12.8811L21.5477 14.4673C21.8057 14.7169 22.2172 14.7101 22.4668 14.452C22.7164 14.194 22.7096 13.7825 22.4516 13.5329L20.834 11.9681Z" fill="white"/>
</svg>
