<svg width="16" height="16" viewBox="0 0 16 16" fill="none" xmlns="http://www.w3.org/2000/svg">
<path fill-rule="evenodd" clip-rule="evenodd" d="M3.02223 2.45508C2.5129 2.45508 2.10001 2.86797 2.10001 3.3773V8.94252C2.10001 9.45185 2.5129 9.86474 3.02223 9.86474H4.13527C4.41141 9.86474 4.63527 10.0886 4.63527 10.3647V12.1257L6.74983 10.0112C6.76229 9.99873 6.77533 9.98701 6.78889 9.97603V8.35508C6.78889 7.29346 7.6495 6.43286 8.71112 6.43286H12.4778V3.3773C12.4778 2.86797 12.0649 2.45508 11.5556 2.45508H3.02223ZM13.4778 6.49853V3.3773C13.4778 2.31569 12.6172 1.45508 11.5556 1.45508H3.02223C1.96061 1.45508 1.10001 2.31569 1.10001 3.3773V8.94252C1.10001 10.0041 1.96061 10.8647 3.02223 10.8647H3.63527V13.3329C3.63527 13.5351 3.75709 13.7174 3.94393 13.7948C4.13077 13.8722 4.34583 13.8294 4.48882 13.6864L6.86641 11.3088C7.10045 12.1065 7.83777 12.6889 8.71112 12.6889H10.7533L12.4619 14.3975C12.6049 14.5405 12.82 14.5833 13.0068 14.5059C13.1936 14.4285 13.3155 14.2462 13.3155 14.044V12.6593C14.2161 12.4997 14.9 11.7131 14.9 10.7667V8.35508C14.9 7.46641 14.297 6.7186 13.4778 6.49853ZM7.78889 10.7667C7.78889 11.276 8.20179 11.6889 8.71112 11.6889H10.9604C11.093 11.6889 11.2202 11.7416 11.3139 11.8353L12.3155 12.8369V12.1889C12.3155 11.9128 12.5393 11.6889 12.8155 11.6889H12.9778C13.4871 11.6889 13.9 11.276 13.9 10.7667V8.35508C13.9 7.84575 13.4871 7.43286 12.9778 7.43286H8.71112C8.20179 7.43286 7.78889 7.84575 7.78889 8.35508V10.7667Z" fill="#303234"/>
</svg>
