<svg width="12" height="12" viewBox="0 0 12 12" fill="none" xmlns="http://www.w3.org/2000/svg">
<path d="M10.3317 9.38526C10.3317 9.38526 9.75233 9.95427 9.61036 10.1211C9.37909 10.3679 9.10659 10.4844 8.74938 10.4844C8.71503 10.4844 8.67839 10.4844 8.64404 10.4821C7.96396 10.4387 7.33196 10.1736 6.85796 9.94741C5.56191 9.32128 4.42385 8.43235 3.47815 7.30576C2.69731 6.36655 2.17522 5.49819 1.82945 4.56584C1.6165 3.99683 1.53864 3.55351 1.57299 3.13532C1.59589 2.86796 1.69893 2.6463 1.88899 2.45663L2.66983 1.67738C2.78203 1.57227 2.9011 1.51514 3.01789 1.51514C3.16215 1.51514 3.27893 1.60197 3.3522 1.6751C3.35449 1.67738 3.35678 1.67967 3.35907 1.68195C3.49875 1.81221 3.63157 1.94703 3.77125 2.091C3.84223 2.16413 3.91551 2.23725 3.98878 2.31266L4.61391 2.93651C4.85663 3.17874 4.85663 3.40269 4.61391 3.64492C4.54751 3.71119 4.48339 3.77745 4.41698 3.84144C4.22464 4.03796 4.37574 3.88717 4.17652 4.06542C4.17194 4.06999 4.16736 4.07227 4.16507 4.07684C3.96814 4.27337 4.00478 4.46532 4.046 4.59558C4.04829 4.60243 4.05058 4.60929 4.05287 4.61614C4.21545 5.00919 4.44443 5.37939 4.79249 5.82043L4.79478 5.82271C5.42678 6.59967 6.09312 7.20524 6.82816 7.66913C6.92205 7.72854 7.01822 7.77653 7.10982 7.82224C7.19225 7.86337 7.2701 7.90222 7.33651 7.94335C7.34567 7.94792 7.35483 7.95477 7.36399 7.95935C7.44184 7.99819 7.51512 8.01648 7.59068 8.01648C7.78074 8.01648 7.89981 7.89765 7.93874 7.8588L8.38758 7.41087C8.46544 7.33318 8.58909 7.23949 8.73335 7.23949C8.87532 7.23949 8.9921 7.32861 9.06309 7.4063C9.06538 7.40859 9.06538 7.40859 9.06767 7.41087L10.3294 8.67C10.5652 8.90309 10.3317 9.38526 10.3317 9.38526Z" stroke="black" stroke-linecap="round" stroke-linejoin="round"/>
</svg>
