<svg width="12" height="12" viewBox="0 0 12 12" fill="none" xmlns="http://www.w3.org/2000/svg">
<path fill-rule="evenodd" clip-rule="evenodd" d="M3.7124 0.900098C3.7124 0.630859 3.93066 0.412598 4.1999 0.412598H7.7999C8.06914 0.412598 8.2874 0.630859 8.2874 0.900098C8.2874 1.16934 8.06914 1.3876 7.7999 1.3876H4.1999C3.93066 1.3876 3.7124 1.16934 3.7124 0.900098ZM0.712402 2.7001C0.712402 2.43086 0.930664 2.2126 1.1999 2.2126H10.7999C11.0691 2.2126 11.2874 2.43086 11.2874 2.7001C11.2874 2.96934 11.0691 3.1876 10.7999 3.1876H10.0562C10.0615 3.23924 10.0632 3.29192 10.0609 3.34537L9.78737 9.91111C9.78144 10.838 9.02821 11.5876 8.0999 11.5876H3.8999C2.97159 11.5876 2.21835 10.838 2.21244 9.91109L1.93887 3.34537C1.93664 3.29192 1.9383 3.23924 1.9436 3.1876H1.1999C0.930664 3.1876 0.712402 2.96934 0.712402 2.7001ZM3.02542 3.1876C2.96145 3.1876 2.91036 3.24087 2.91302 3.30478L3.1874 9.88995V9.9001C3.1874 10.2936 3.5064 10.6126 3.8999 10.6126H8.0999C8.4934 10.6126 8.8124 10.2936 8.8124 9.9001V9.88995L9.08678 3.30478C9.08945 3.24087 9.03835 3.1876 8.97438 3.1876H3.02542ZM4.7999 4.6126C5.06914 4.6126 5.2874 4.83086 5.2874 5.1001V8.7001C5.2874 8.96934 5.06914 9.1876 4.7999 9.1876C4.53066 9.1876 4.3124 8.96934 4.3124 8.7001V5.1001C4.3124 4.83086 4.53066 4.6126 4.7999 4.6126ZM7.1999 4.6126C7.46914 4.6126 7.6874 4.83086 7.6874 5.1001V8.7001C7.6874 8.96934 7.46914 9.1876 7.1999 9.1876C6.93066 9.1876 6.7124 8.96934 6.7124 8.7001V5.1001C6.7124 4.83086 6.93066 4.6126 7.1999 4.6126Z" fill="#303234"/>
</svg>
