<svg width="16" height="16" viewBox="0 0 16 16" fill="none" xmlns="http://www.w3.org/2000/svg">
<path fill-rule="evenodd" clip-rule="evenodd" d="M6.4762 3.62402C5.74245 3.62402 5.14762 4.21885 5.14762 4.95259C5.14762 5.68634 5.74245 6.28117 6.4762 6.28117C7.20995 6.28117 7.80477 5.68634 7.80477 4.95259C7.80477 4.21885 7.20995 3.62402 6.4762 3.62402ZM4.14762 4.95259C4.14762 3.66656 5.19016 2.62402 6.4762 2.62402C7.76223 2.62402 8.80477 3.66656 8.80477 4.95259C8.80477 6.23863 7.76223 7.28117 6.4762 7.28117C5.19016 7.28117 4.14762 6.23863 4.14762 4.95259ZM9.9672 3.11829C10.1055 2.87926 10.4113 2.79758 10.6504 2.93585C11.3451 3.33772 11.8143 4.09007 11.8143 4.9526C11.8143 5.81512 11.3451 6.56747 10.6504 6.96934C10.4113 7.10761 10.1055 7.02593 9.9672 6.7869C9.82893 6.54787 9.91061 6.242 10.1496 6.10373C10.5481 5.87326 10.8143 5.44373 10.8143 4.9526C10.8143 4.46147 10.5481 4.03193 10.1496 3.80146C9.91061 3.66319 9.82893 3.35732 9.9672 3.11829ZM2.50382 9.47362C3.42699 8.75728 4.7658 8.35161 6.4762 8.35161C8.1866 8.35161 9.5254 8.75728 10.4486 9.47362C11.3828 10.1986 11.8524 11.2137 11.8524 12.324C11.8524 12.8544 11.4542 13.3764 10.8552 13.3764H2.09719C1.49821 13.3764 1.10001 12.8544 1.10001 12.324C1.10001 11.2137 1.56957 10.1986 2.50382 9.47362ZM3.11687 10.2637C2.43153 10.7955 2.10001 11.5165 2.10001 12.324C2.10001 12.3504 2.10817 12.3677 2.11433 12.3764H10.8381C10.8442 12.3677 10.8524 12.3504 10.8524 12.324C10.8524 11.5165 10.5209 10.7955 9.83552 10.2637C9.1391 9.72327 8.03981 9.35161 6.4762 9.35161C4.91258 9.35161 3.81329 9.72327 3.11687 10.2637ZM12.3995 8.82475C12.5647 8.60354 12.8781 8.5582 13.0993 8.72348C13.6097 9.10483 14.053 9.73725 14.3655 10.3728C14.6779 11.008 14.9 11.7287 14.9 12.324C14.9 12.8544 14.5018 13.3764 13.9028 13.3764H13.6C13.3239 13.3764 13.1 13.1525 13.1 12.8764C13.1 12.6003 13.3239 12.3764 13.6 12.3764H13.8857C13.8918 12.3677 13.9 12.3504 13.9 12.324C13.9 11.94 13.7446 11.3763 13.4682 10.8141C13.1919 10.2524 12.8352 9.77448 12.5007 9.52457C12.2795 9.35929 12.2342 9.04597 12.3995 8.82475Z" fill="#303234"/>
</svg>
