<svg width="40" height="40" viewBox="0 0 40 40" fill="none" xmlns="http://www.w3.org/2000/svg">
<rect x="0.5" y="0.5" width="39" height="39" rx="15.5" stroke="#303234"/>
<path d="M27.05 12.9101C26.1332 11.984 25.0412 11.2497 23.8376 10.7501C22.6341 10.2505 21.3431 9.99552 20.04 10.0001C14.58 10.0001 10.13 14.4501 10.13 19.9101C10.13 21.6601 10.59 23.3601 11.45 24.8601L10.05 30.0001L15.3 28.6201C16.75 29.4101 18.38 29.8301 20.04 29.8301C25.5 29.8301 29.95 25.3801 29.95 19.9201C29.95 17.2701 28.92 14.7801 27.05 12.9101ZM20.04 28.1501C18.56 28.1501 17.11 27.7501 15.84 27.0001L15.54 26.8201L12.42 27.6401L13.25 24.6001L13.05 24.2901C12.2277 22.977 11.7911 21.4593 11.79 19.9101C11.79 15.3701 15.49 11.6701 20.03 11.6701C22.23 11.6701 24.3 12.5301 25.85 14.0901C26.6175 14.854 27.2257 15.7627 27.6394 16.7635C28.0531 17.7642 28.264 18.8372 28.26 19.9201C28.28 24.4601 24.58 28.1501 20.04 28.1501ZM24.56 21.9901C24.31 21.8701 23.09 21.2701 22.87 21.1801C22.64 21.1001 22.48 21.0601 22.31 21.3001C22.14 21.5501 21.67 22.1101 21.53 22.2701C21.39 22.4401 21.24 22.4601 20.99 22.3301C20.74 22.2101 19.94 21.9401 19 21.1001C18.26 20.4401 17.77 19.6301 17.62 19.3801C17.48 19.1301 17.6 19.0001 17.73 18.8701C17.84 18.7601 17.98 18.5801 18.1 18.4401C18.22 18.3001 18.27 18.1901 18.35 18.0301C18.43 17.8601 18.39 17.7201 18.33 17.6001C18.27 17.4801 17.77 16.2601 17.57 15.7601C17.37 15.2801 17.16 15.3401 17.01 15.3301H16.53C16.36 15.3301 16.1 15.3901 15.87 15.6401C15.65 15.8901 15.01 16.4901 15.01 17.7101C15.01 18.9301 15.9 20.1101 16.02 20.2701C16.14 20.4401 17.77 22.9401 20.25 24.0101C20.84 24.2701 21.3 24.4201 21.66 24.5301C22.25 24.7201 22.79 24.6901 23.22 24.6301C23.7 24.5601 24.69 24.0301 24.89 23.4501C25.1 22.8701 25.1 22.3801 25.03 22.2701C24.96 22.1601 24.81 22.1101 24.56 21.9901Z" fill="#303234"/>
</svg>
